<svg xmlns="http://www.w3.org/2000/svg" xmlns:xlink="http://www.w3.org/1999/xlink" width="50" zoomAndPan="magnify" viewBox="0 0 37.5 37.499999" height="50" preserveAspectRatio="xMidYMid meet" version="1.0"><path fill="#fefefe" d="M 32.378906 18.503906 C 32.378906 18.65625 32.351562 18.804688 32.292969 18.945312 C 32.234375 19.085938 32.152344 19.210938 32.042969 19.320312 C 31.933594 19.429688 31.808594 19.511719 31.667969 19.570312 C 31.523438 19.628906 31.378906 19.660156 31.222656 19.660156 L 5.78125 19.660156 C 5.628906 19.660156 5.480469 19.628906 5.339844 19.570312 C 5.199219 19.511719 5.074219 19.429688 4.964844 19.320312 C 4.855469 19.210938 4.773438 19.085938 4.714844 18.945312 C 4.65625 18.804688 4.625 18.65625 4.625 18.503906 C 4.625 18.351562 4.65625 18.203125 4.714844 18.0625 C 4.773438 17.917969 4.855469 17.792969 4.964844 17.6875 C 5.074219 17.578125 5.199219 17.492188 5.339844 17.433594 C 5.480469 17.375 5.628906 17.347656 5.78125 17.347656 L 31.222656 17.347656 C 31.378906 17.347656 31.523438 17.375 31.667969 17.433594 C 31.808594 17.492188 31.933594 17.578125 32.042969 17.6875 C 32.152344 17.792969 32.234375 17.917969 32.292969 18.0625 C 32.351562 18.203125 32.378906 18.351562 32.378906 18.503906 Z M 5.78125 10.40625 L 31.222656 10.40625 C 31.378906 10.40625 31.523438 10.378906 31.667969 10.320312 C 31.808594 10.261719 31.933594 10.179688 32.042969 10.070312 C 32.152344 9.960938 32.234375 9.835938 32.292969 9.695312 C 32.351562 9.550781 32.378906 9.40625 32.378906 9.25 C 32.378906 9.097656 32.351562 8.949219 32.292969 8.808594 C 32.234375 8.667969 32.152344 8.542969 32.042969 8.433594 C 31.933594 8.324219 31.808594 8.242188 31.667969 8.183594 C 31.523438 8.125 31.378906 8.09375 31.222656 8.09375 L 5.78125 8.09375 C 5.628906 8.09375 5.480469 8.125 5.339844 8.183594 C 5.199219 8.242188 5.074219 8.324219 4.964844 8.433594 C 4.855469 8.542969 4.773438 8.667969 4.714844 8.808594 C 4.65625 8.949219 4.625 9.097656 4.625 9.25 C 4.625 9.40625 4.65625 9.550781 4.714844 9.695312 C 4.773438 9.835938 4.855469 9.960938 4.964844 10.070312 C 5.074219 10.179688 5.199219 10.261719 5.339844 10.320312 C 5.480469 10.378906 5.628906 10.40625 5.78125 10.40625 Z M 31.222656 26.597656 L 5.78125 26.597656 C 5.628906 26.597656 5.480469 26.628906 5.339844 26.6875 C 5.199219 26.746094 5.074219 26.828125 4.964844 26.9375 C 4.855469 27.046875 4.773438 27.171875 4.714844 27.3125 C 4.65625 27.453125 4.625 27.601562 4.625 27.753906 C 4.625 27.910156 4.65625 28.054688 4.714844 28.199219 C 4.773438 28.339844 4.855469 28.464844 4.964844 28.574219 C 5.074219 28.679688 5.199219 28.765625 5.339844 28.824219 C 5.480469 28.882812 5.628906 28.910156 5.78125 28.910156 L 31.222656 28.910156 C 31.378906 28.910156 31.523438 28.882812 31.667969 28.824219 C 31.808594 28.765625 31.933594 28.679688 32.042969 28.574219 C 32.152344 28.464844 32.234375 28.339844 32.292969 28.199219 C 32.351562 28.054688 32.378906 27.910156 32.378906 27.753906 C 32.378906 27.601562 32.351562 27.453125 32.292969 27.3125 C 32.234375 27.171875 32.152344 27.046875 32.042969 26.9375 C 31.933594 26.828125 31.808594 26.746094 31.667969 26.6875 C 31.523438 26.628906 31.378906 26.597656 31.222656 26.597656 Z M 31.222656 26.597656 " fill-opacity="1" fill-rule="nonzero"/></svg>