<svg xmlns="http://www.w3.org/2000/svg" xmlns:xlink="http://www.w3.org/1999/xlink" width="50" zoomAndPan="magnify" viewBox="0 0 37.5 37.499999" height="50" preserveAspectRatio="xMidYMid meet" version="1.0"><path fill="#fefefe" d="M 9.84375 15.296875 L 9.84375 6.652344 C 9.84375 6.511719 9.816406 6.375 9.761719 6.246094 C 9.707031 6.113281 9.632812 6 9.53125 5.898438 C 9.433594 5.800781 9.316406 5.722656 9.1875 5.667969 C 9.054688 5.613281 8.921875 5.589844 8.78125 5.589844 C 8.640625 5.589844 8.503906 5.613281 8.371094 5.667969 C 8.242188 5.722656 8.128906 5.800781 8.027344 5.898438 C 7.925781 6 7.851562 6.113281 7.796875 6.246094 C 7.742188 6.375 7.714844 6.511719 7.714844 6.652344 L 7.714844 15.296875 C 7.257812 15.414062 6.832031 15.601562 6.4375 15.859375 C 6.042969 16.121094 5.699219 16.4375 5.410156 16.808594 C 5.121094 17.183594 4.898438 17.59375 4.746094 18.039062 C 4.59375 18.488281 4.515625 18.945312 4.515625 19.417969 C 4.515625 19.890625 4.59375 20.351562 4.746094 20.796875 C 4.898438 21.246094 5.121094 21.65625 5.410156 22.027344 C 5.699219 22.402344 6.042969 22.71875 6.4375 22.976562 C 6.832031 23.238281 7.257812 23.425781 7.714844 23.542969 L 7.714844 30.058594 C 7.714844 30.199219 7.742188 30.335938 7.796875 30.464844 C 7.851562 30.597656 7.925781 30.710938 8.027344 30.8125 C 8.128906 30.910156 8.242188 30.988281 8.371094 31.042969 C 8.503906 31.09375 8.640625 31.121094 8.78125 31.121094 C 8.921875 31.121094 9.054688 31.09375 9.1875 31.042969 C 9.316406 30.988281 9.433594 30.910156 9.53125 30.8125 C 9.632812 30.710938 9.707031 30.597656 9.761719 30.464844 C 9.816406 30.335938 9.84375 30.199219 9.84375 30.058594 L 9.84375 23.542969 C 10.300781 23.425781 10.726562 23.238281 11.121094 22.976562 C 11.519531 22.71875 11.859375 22.402344 12.148438 22.027344 C 12.441406 21.65625 12.660156 21.246094 12.8125 20.796875 C 12.96875 20.351562 13.042969 19.890625 13.042969 19.417969 C 13.042969 18.945312 12.96875 18.488281 12.8125 18.039062 C 12.660156 17.59375 12.441406 17.183594 12.148438 16.808594 C 11.859375 16.4375 11.519531 16.121094 11.121094 15.859375 C 10.726562 15.601562 10.300781 15.414062 9.84375 15.296875 Z M 8.78125 21.546875 C 8.496094 21.546875 8.226562 21.492188 7.964844 21.386719 C 7.703125 21.277344 7.476562 21.125 7.273438 20.925781 C 7.074219 20.722656 6.921875 20.496094 6.8125 20.234375 C 6.707031 19.972656 6.652344 19.703125 6.652344 19.417969 C 6.652344 19.136719 6.707031 18.867188 6.8125 18.605469 C 6.921875 18.34375 7.074219 18.113281 7.273438 17.914062 C 7.476562 17.714844 7.703125 17.5625 7.964844 17.453125 C 8.226562 17.34375 8.496094 17.292969 8.78125 17.292969 C 9.0625 17.292969 9.332031 17.34375 9.59375 17.453125 C 9.855469 17.5625 10.085938 17.714844 10.285156 17.914062 C 10.484375 18.113281 10.636719 18.34375 10.746094 18.605469 C 10.855469 18.867188 10.90625 19.136719 10.90625 19.417969 C 10.90625 19.703125 10.855469 19.972656 10.746094 20.234375 C 10.636719 20.496094 10.484375 20.722656 10.285156 20.925781 C 10.085938 21.125 9.855469 21.277344 9.59375 21.386719 C 9.332031 21.492188 9.0625 21.546875 8.78125 21.546875 Z M 19.417969 8.914062 L 19.417969 6.652344 C 19.417969 6.511719 19.390625 6.375 19.339844 6.246094 C 19.285156 6.113281 19.207031 6 19.109375 5.898438 C 19.007812 5.800781 18.894531 5.722656 18.761719 5.667969 C 18.632812 5.613281 18.496094 5.589844 18.355469 5.589844 C 18.214844 5.589844 18.078125 5.613281 17.949219 5.667969 C 17.816406 5.722656 17.703125 5.800781 17.601562 5.898438 C 17.503906 6 17.425781 6.113281 17.371094 6.246094 C 17.316406 6.375 17.292969 6.511719 17.292969 6.652344 L 17.292969 8.914062 C 16.832031 9.03125 16.40625 9.21875 16.011719 9.476562 C 15.617188 9.738281 15.273438 10.054688 14.984375 10.425781 C 14.695312 10.800781 14.472656 11.210938 14.320312 11.65625 C 14.167969 12.101562 14.089844 12.5625 14.089844 13.035156 C 14.089844 13.507812 14.167969 13.96875 14.320312 14.414062 C 14.472656 14.863281 14.695312 15.273438 14.984375 15.644531 C 15.273438 16.019531 15.617188 16.335938 16.011719 16.59375 C 16.40625 16.851562 16.832031 17.042969 17.292969 17.160156 L 17.292969 30.058594 C 17.292969 30.199219 17.316406 30.335938 17.371094 30.464844 C 17.425781 30.597656 17.503906 30.710938 17.601562 30.8125 C 17.703125 30.910156 17.816406 30.988281 17.949219 31.042969 C 18.078125 31.09375 18.214844 31.121094 18.355469 31.121094 C 18.496094 31.121094 18.632812 31.09375 18.761719 31.042969 C 18.894531 30.988281 19.007812 30.910156 19.109375 30.8125 C 19.207031 30.710938 19.285156 30.597656 19.339844 30.464844 C 19.390625 30.335938 19.417969 30.199219 19.417969 30.058594 L 19.417969 17.160156 C 19.875 17.042969 20.304688 16.851562 20.699219 16.59375 C 21.09375 16.335938 21.4375 16.019531 21.726562 15.644531 C 22.015625 15.273438 22.238281 14.863281 22.390625 14.414062 C 22.542969 13.96875 22.621094 13.507812 22.621094 13.035156 C 22.621094 12.5625 22.542969 12.101562 22.390625 11.65625 C 22.238281 11.210938 22.015625 10.800781 21.726562 10.425781 C 21.4375 10.054688 21.09375 9.738281 20.699219 9.476562 C 20.304688 9.21875 19.875 9.03125 19.417969 8.914062 Z M 18.355469 15.164062 C 18.074219 15.164062 17.800781 15.109375 17.539062 15 C 17.28125 14.894531 17.050781 14.738281 16.851562 14.539062 C 16.652344 14.339844 16.496094 14.109375 16.390625 13.851562 C 16.28125 13.589844 16.226562 13.316406 16.226562 13.035156 C 16.226562 12.753906 16.28125 12.480469 16.390625 12.222656 C 16.496094 11.960938 16.652344 11.730469 16.851562 11.53125 C 17.050781 11.332031 17.28125 11.175781 17.539062 11.070312 C 17.800781 10.960938 18.074219 10.90625 18.355469 10.90625 C 18.636719 10.90625 18.910156 10.960938 19.167969 11.070312 C 19.429688 11.175781 19.660156 11.332031 19.859375 11.53125 C 20.058594 11.730469 20.214844 11.960938 20.320312 12.222656 C 20.429688 12.480469 20.484375 12.753906 20.484375 13.035156 C 20.484375 13.316406 20.429688 13.589844 20.320312 13.851562 C 20.214844 14.109375 20.058594 14.339844 19.859375 14.539062 C 19.660156 14.738281 19.429688 14.894531 19.167969 15 C 18.910156 15.109375 18.636719 15.164062 18.355469 15.164062 Z M 32.1875 23.675781 C 32.1875 23.203125 32.109375 22.746094 31.957031 22.296875 C 31.804688 21.851562 31.582031 21.441406 31.292969 21.070312 C 31.003906 20.695312 30.664062 20.378906 30.269531 20.121094 C 29.875 19.859375 29.453125 19.671875 28.996094 19.550781 L 28.996094 6.652344 C 28.996094 6.511719 28.96875 6.375 28.914062 6.246094 C 28.859375 6.113281 28.78125 6 28.683594 5.898438 C 28.582031 5.800781 28.46875 5.722656 28.335938 5.667969 C 28.207031 5.613281 28.070312 5.589844 27.929688 5.589844 C 27.789062 5.589844 27.652344 5.613281 27.523438 5.667969 C 27.394531 5.722656 27.277344 5.800781 27.179688 5.898438 C 27.078125 6 27 6.113281 26.949219 6.246094 C 26.894531 6.375 26.867188 6.511719 26.867188 6.652344 L 26.867188 19.550781 C 26.410156 19.667969 25.984375 19.859375 25.585938 20.117188 C 25.191406 20.375 24.851562 20.691406 24.558594 21.066406 C 24.269531 21.4375 24.050781 21.847656 23.894531 22.296875 C 23.742188 22.742188 23.667969 23.203125 23.667969 23.675781 C 23.667969 24.148438 23.742188 24.605469 23.894531 25.054688 C 24.050781 25.5 24.269531 25.910156 24.558594 26.285156 C 24.851562 26.65625 25.191406 26.972656 25.585938 27.234375 C 25.984375 27.492188 26.410156 27.679688 26.867188 27.796875 L 26.867188 30.058594 C 26.867188 30.199219 26.894531 30.335938 26.949219 30.464844 C 27 30.597656 27.078125 30.710938 27.179688 30.8125 C 27.277344 30.910156 27.394531 30.988281 27.523438 31.042969 C 27.652344 31.09375 27.789062 31.121094 27.929688 31.121094 C 28.070312 31.121094 28.207031 31.09375 28.335938 31.042969 C 28.46875 30.988281 28.582031 30.910156 28.683594 30.8125 C 28.78125 30.710938 28.859375 30.597656 28.914062 30.464844 C 28.96875 30.335938 28.996094 30.199219 28.996094 30.058594 L 28.996094 27.796875 C 29.453125 27.679688 29.875 27.488281 30.269531 27.230469 C 30.664062 26.96875 31.003906 26.652344 31.292969 26.28125 C 31.582031 25.90625 31.804688 25.5 31.957031 25.050781 C 32.109375 24.605469 32.1875 24.148438 32.1875 23.675781 Z M 27.929688 25.804688 C 27.648438 25.804688 27.378906 25.75 27.117188 25.640625 C 26.855469 25.53125 26.625 25.378906 26.425781 25.179688 C 26.226562 24.980469 26.074219 24.75 25.964844 24.488281 C 25.855469 24.230469 25.804688 23.957031 25.804688 23.675781 C 25.804688 23.394531 25.855469 23.121094 25.964844 22.859375 C 26.074219 22.601562 26.226562 22.371094 26.425781 22.171875 C 26.625 21.972656 26.855469 21.816406 27.117188 21.710938 C 27.378906 21.601562 27.648438 21.546875 27.929688 21.546875 C 28.210938 21.546875 28.484375 21.601562 28.746094 21.710938 C 29.003906 21.816406 29.234375 21.972656 29.433594 22.171875 C 29.636719 22.371094 29.789062 22.601562 29.898438 22.859375 C 30.003906 23.121094 30.058594 23.394531 30.058594 23.675781 C 30.058594 23.957031 30.003906 24.230469 29.898438 24.488281 C 29.789062 24.75 29.636719 24.980469 29.433594 25.179688 C 29.234375 25.378906 29.003906 25.53125 28.746094 25.640625 C 28.484375 25.75 28.210938 25.804688 27.929688 25.804688 Z M 27.929688 25.804688 " fill-opacity="1" fill-rule="nonzero"/></svg>